<?xml version="1.0" encoding="UTF-8"?><svg xmlns="http://www.w3.org/2000/svg" viewBox="0 0 1000 1000"><defs><style>.cls-1{stroke:#231f20;stroke-miterlimit:10;}.cls-1,.cls-2{fill:#231f20;}</style></defs><g id="Layer_1"><path class="cls-1" d="M661.663,636.461c-14.625-14.723-24.74-32.08-30.346-52.07l-4.215-31.369c-.613-16.246,2.775-31.401,10.163-45.463,4.076-12.529,10.634-23.607,19.659-33.245-87.256-114.223-72.855-262.534-161.759-261.099-91.828,1.482-67.009,149.927-161.834,277.62-92.124,124.056,78.877,273.737,170.706,272.255,52.214-.842,129.219-52.68,167.833-118.744-3.402-2.629-6.804-5.257-10.207-7.886Z"/><ellipse class="cls-1" cx="447.91" cy="607.517" rx="147.753" ry="165.73"/><path class="cls-1" d="M685.544,654.912c-7.961-6.15-15.921-12.301-23.882-18.451-14.625-14.723-24.74-32.08-30.346-52.07l-4.215-31.369c-.613-16.246,2.775-31.401,10.163-45.463,3.456-10.625,8.702-20.206,15.719-28.752-25.407-23.143-57.792-37.021-93.072-37.021-81.602,0-147.753,74.2-147.753,165.73s66.151,165.73,147.753,165.73c64.624,0,119.549-46.541,139.61-111.367-4.748-1.996-9.407-4.318-13.976-6.968Z"/></g><g id="Layer_2"><g><path class="cls-2" d="M578.615,101.572c-6.055,30.977-2.782,28.643-32.586,75.795-18.302,28.955-51.974,35.516-61.229,25.996s-7.283-32.23,17.277-56.108c24.56-23.877,79.084-58.714,76.537-45.683Z"/><path class="cls-2" d="M578.615,101.572c-1.944,9.626-3.08,19.458-6.137,28.827-5.606,15.448-15.024,29.158-23.466,43.128-9.675,17.106-26.454,31.016-46.271,33.853-6.319,.752-14.058,.686-18.615-4.438-4.426-5.092-5.178-12.299-4.19-18.734,3.512-19.771,18.675-34.712,33.499-47.066,15.214-12.41,31.318-23.886,48.637-33.179,2.79-1.378,17.697-9.408,16.543-2.391h0Zm0,0c1.163-7.079-13.952,1.136-16.543,2.391-17.319,9.293-33.424,20.769-48.637,33.179-14.793,12.307-29.929,27.358-33.243,47.104-.917,6.345-.119,13.455,4.266,18.403,4.483,4.929,12.041,4.876,18.194,4.089,12.891-1.989,24.755-8.898,33.855-18.112,4.65-4.624,8.256-10.04,11.694-15.61,3.525-5.522,6.992-11.078,10.421-16.656,5.069-8.381,10.259-16.806,13.609-26.047,3.233-9.297,4.364-19.143,6.384-28.742h0Z"/></g></g></svg>