<?xml version="1.0" encoding="UTF-8"?><svg xmlns="http://www.w3.org/2000/svg" viewBox="0 0 1000 1000"><defs><style>.cls-1{fill:#808285;}</style></defs><g id="Layer_1"><path class="cls-1" d="M661.663,636.461c-14.625-14.723-24.74-32.08-30.346-52.07l-4.215-31.369c-.613-16.246,2.775-31.401,10.163-45.463,4.076-12.529,10.634-23.607,19.659-33.245-87.256-114.223-72.855-262.534-161.759-261.099-91.828,1.482-67.009,149.927-161.834,277.62-92.124,124.056,78.877,273.737,170.706,272.255,52.214-.842,129.219-52.68,167.833-118.744-3.402-2.629-6.804-5.257-10.207-7.886Z"/><ellipse class="cls-1" cx="444.371" cy="607.517" rx="149.831" ry="165.73"/><path class="cls-1" d="M685.348,654.912c-8.073-6.15-16.145-12.301-24.218-18.451-14.83-14.723-25.088-32.08-30.773-52.07l-4.274-31.369c-.621-16.246,2.814-31.401,10.306-45.463,3.505-10.625,8.825-20.206,15.94-28.752-25.764-23.143-58.605-37.021-94.382-37.021-82.75,0-149.831,74.2-149.831,165.73s67.082,165.73,149.831,165.73c65.533,0,121.231-46.541,141.574-111.367-4.815-1.996-9.539-4.318-14.173-6.968Z"/></g><g id="Layer_2"><path class="cls-1" d="M578.615,101.572c-6.055,30.977-2.782,28.643-32.586,75.795-18.302,28.955-51.974,35.516-61.229,25.996s-7.283-32.23,17.277-56.108c24.56-23.877,79.084-58.714,76.537-45.683Z"/></g></svg>